<svg width="106" height="41" viewBox="0 0 106 41" fill="none" xmlns="http://www.w3.org/2000/svg">
<ellipse cx="75.5" cy="9" rx="5.5" ry="5" fill="#68FEE4" fill-opacity="0.7"/>
<path d="M9.70254 30.3C8.82254 30.3 7.94254 30.23 7.06254 30.09C6.18254 29.97 5.35254 29.78 4.57254 29.52C3.79254 29.24 3.09254 28.9 2.47254 28.5C2.11254 28.26 1.86254 27.97 1.72254 27.63C1.58254 27.29 1.53254 26.96 1.57254 26.64C1.63254 26.3 1.76254 26.01 1.96254 25.77C2.18254 25.51 2.45254 25.35 2.77254 25.29C3.09254 25.23 3.44254 25.32 3.82254 25.56C4.70254 26.08 5.63254 26.46 6.61254 26.7C7.59254 26.94 8.62254 27.06 9.70254 27.06C11.2825 27.06 12.4325 26.8 13.1525 26.28C13.8725 25.74 14.2325 25.05 14.2325 24.21C14.2325 23.51 13.9725 22.96 13.4525 22.56C12.9525 22.16 12.0825 21.83 10.8425 21.57L7.54254 20.88C5.64254 20.48 4.22254 19.81 3.28254 18.87C2.36254 17.91 1.90254 16.65 1.90254 15.09C1.90254 14.11 2.10254 13.22 2.50254 12.42C2.90254 11.62 3.46254 10.93 4.18254 10.35C4.92254 9.77 5.79254 9.33 6.79254 9.03C7.81254 8.71 8.93254 8.55 10.1525 8.55C11.3525 8.55 12.4925 8.7 13.5725 9C14.6525 9.3 15.6225 9.74 16.4825 10.32C16.8025 10.54 17.0125 10.81 17.1125 11.13C17.2325 11.45 17.2625 11.77 17.2025 12.09C17.1425 12.39 17.0025 12.65 16.7825 12.87C16.5625 13.09 16.2825 13.22 15.9425 13.26C15.6225 13.3 15.2525 13.2 14.8325 12.96C14.0925 12.54 13.3425 12.24 12.5825 12.06C11.8225 11.88 11.0025 11.79 10.1225 11.79C9.20254 11.79 8.41254 11.92 7.75254 12.18C7.09254 12.44 6.58254 12.81 6.22254 13.29C5.88254 13.75 5.71254 14.3 5.71254 14.94C5.71254 15.66 5.95254 16.24 6.43254 16.68C6.91254 17.1 7.73254 17.43 8.89254 17.67L12.1625 18.36C14.1425 18.78 15.6125 19.44 16.5725 20.34C17.5525 21.24 18.0425 22.44 18.0425 23.94C18.0425 24.9 17.8425 25.77 17.4425 26.55C17.0625 27.33 16.5025 28 15.7625 28.56C15.0425 29.12 14.1725 29.55 13.1525 29.85C12.1325 30.15 10.9825 30.3 9.70254 30.3ZM26.2883 30.3C25.0683 30.3 24.0583 30.08 23.2583 29.64C22.4583 29.18 21.8583 28.5 21.4583 27.6C21.0783 26.7 20.8883 25.58 20.8883 24.24V16.98C20.8883 16.34 21.0483 15.87 21.3683 15.57C21.6883 15.25 22.1483 15.09 22.7483 15.09C23.3483 15.09 23.8083 15.25 24.1283 15.57C24.4683 15.87 24.6383 16.34 24.6383 16.98V24.3C24.6383 25.34 24.8483 26.11 25.2683 26.61C25.6883 27.11 26.3583 27.36 27.2783 27.36C28.2783 27.36 29.0983 27.02 29.7383 26.34C30.3783 25.64 30.6983 24.72 30.6983 23.58V16.98C30.6983 16.34 30.8583 15.87 31.1783 15.57C31.4983 15.25 31.9583 15.09 32.5583 15.09C33.1583 15.09 33.6183 15.25 33.9383 15.57C34.2783 15.87 34.4483 16.34 34.4483 16.98V28.32C34.4483 29.6 33.8383 30.24 32.6183 30.24C32.0383 30.24 31.5883 30.08 31.2683 29.76C30.9483 29.42 30.7883 28.94 30.7883 28.32V26.04L31.2083 26.94C30.7883 28.02 30.1483 28.85 29.2883 29.43C28.4483 30.01 27.4483 30.3 26.2883 30.3ZM40.2114 35.64C39.6114 35.64 39.1514 35.48 38.8314 35.16C38.5114 34.84 38.3514 34.37 38.3514 33.75V16.98C38.3514 16.36 38.5114 15.89 38.8314 15.57C39.1514 15.25 39.6014 15.09 40.1814 15.09C40.7814 15.09 41.2414 15.25 41.5614 15.57C41.8814 15.89 42.0414 16.36 42.0414 16.98V19.32L41.7114 18.42C42.0114 17.4 42.6214 16.58 43.5414 15.96C44.4814 15.34 45.5714 15.03 46.8114 15.03C48.0914 15.03 49.2114 15.34 50.1714 15.96C51.1514 16.58 51.9114 17.46 52.4514 18.6C52.9914 19.72 53.2614 21.07 53.2614 22.65C53.2614 24.21 52.9914 25.57 52.4514 26.73C51.9114 27.87 51.1614 28.75 50.2014 29.37C49.2414 29.99 48.1114 30.3 46.8114 30.3C45.5914 30.3 44.5214 30 43.6014 29.4C42.6814 28.78 42.0614 27.98 41.7414 27H42.1014V33.75C42.1014 34.37 41.9314 34.84 41.5914 35.16C41.2714 35.48 40.8114 35.64 40.2114 35.64ZM45.7614 27.45C46.5014 27.45 47.1514 27.27 47.7114 26.91C48.2714 26.55 48.7014 26.02 49.0014 25.32C49.3214 24.6 49.4814 23.71 49.4814 22.65C49.4814 21.05 49.1414 19.86 48.4614 19.08C47.7814 18.28 46.8814 17.88 45.7614 17.88C45.0214 17.88 44.3714 18.06 43.8114 18.42C43.2514 18.76 42.8114 19.29 42.4914 20.01C42.1914 20.71 42.0414 21.59 42.0414 22.65C42.0414 24.23 42.3814 25.43 43.0614 26.25C43.7414 27.05 44.6414 27.45 45.7614 27.45ZM58.6496 30C58.0296 30 57.5496 29.83 57.2096 29.49C56.8696 29.13 56.6996 28.64 56.6996 28.02V10.71C56.6996 10.07 56.8596 9.59 57.1796 9.27C57.5196 8.93 57.9996 8.76 58.6196 8.76C59.2396 8.76 59.7096 8.93 60.0296 9.27C60.3696 9.59 60.5396 10.07 60.5396 10.71V26.73H69.2396C69.7796 26.73 70.1896 26.87 70.4696 27.15C70.7696 27.43 70.9196 27.83 70.9196 28.35C70.9196 28.87 70.7696 29.28 70.4696 29.58C70.1896 29.86 69.7796 30 69.2396 30H58.6496ZM75.0454 30.21C74.4454 30.21 73.9854 30.03 73.6654 29.67C73.3454 29.31 73.1854 28.81 73.1854 28.17V17.16C73.1854 16.5 73.3454 16 73.6654 15.66C73.9854 15.3 74.4454 15.12 75.0454 15.12C75.6454 15.12 76.1054 15.3 76.4254 15.66C76.7654 16 76.9354 16.5 76.9354 17.16V28.17C76.9354 28.81 76.7754 29.31 76.4554 29.67C76.1354 30.03 75.6654 30.21 75.0454 30.21ZM75.0454 12.33C74.3454 12.33 73.7954 12.16 73.3954 11.82C73.0154 11.46 72.8254 10.97 72.8254 10.35C72.8254 9.71 73.0154 9.22 73.3954 8.88C73.7954 8.54 74.3454 8.37 75.0454 8.37C75.7654 8.37 76.3154 8.54 76.6954 8.88C77.0754 9.22 77.2654 9.71 77.2654 10.35C77.2654 10.97 77.0754 11.46 76.6954 11.82C76.3154 12.16 75.7654 12.33 75.0454 12.33ZM86.2018 30.3C85.3418 30.3 84.4318 30.21 83.4718 30.03C82.5118 29.85 81.6518 29.54 80.8918 29.1C80.5718 28.9 80.3418 28.67 80.2018 28.41C80.0818 28.13 80.0318 27.86 80.0518 27.6C80.0918 27.32 80.1918 27.08 80.3518 26.88C80.5318 26.68 80.7518 26.55 81.0118 26.49C81.2918 26.43 81.5918 26.48 81.9118 26.64C82.7118 27.02 83.4618 27.29 84.1618 27.45C84.8618 27.59 85.5518 27.66 86.2318 27.66C87.1918 27.66 87.9018 27.5 88.3618 27.18C88.8418 26.84 89.0818 26.4 89.0818 25.86C89.0818 25.4 88.9218 25.05 88.6018 24.81C88.3018 24.55 87.8418 24.36 87.2218 24.24L84.2218 23.67C82.9818 23.43 82.0318 22.98 81.3718 22.32C80.7318 21.64 80.4118 20.77 80.4118 19.71C80.4118 18.75 80.6718 17.92 81.1918 17.22C81.7318 16.52 82.4718 15.98 83.4118 15.6C84.3518 15.22 85.4318 15.03 86.6518 15.03C87.5318 15.03 88.3518 15.13 89.1118 15.33C89.8918 15.51 90.6418 15.8 91.3618 16.2C91.6618 16.36 91.8618 16.57 91.9618 16.83C92.0818 17.09 92.1118 17.36 92.0518 17.64C91.9918 17.9 91.8718 18.14 91.6918 18.36C91.5118 18.56 91.2818 18.69 91.0018 18.75C90.7418 18.79 90.4418 18.73 90.1018 18.57C89.4818 18.25 88.8818 18.02 88.3018 17.88C87.7418 17.74 87.2018 17.67 86.6818 17.67C85.7018 17.67 84.9718 17.84 84.4918 18.18C84.0318 18.52 83.8018 18.97 83.8018 19.53C83.8018 19.95 83.9418 20.3 84.2218 20.58C84.5018 20.86 84.9318 21.05 85.5118 21.15L88.5118 21.72C89.8118 21.96 90.7918 22.4 91.4518 23.04C92.1318 23.68 92.4718 24.54 92.4718 25.62C92.4718 27.08 91.9018 28.23 90.7618 29.07C89.6218 29.89 88.1018 30.3 86.2018 30.3ZM102.054 30.3C100.754 30.3 99.6638 30.08 98.7838 29.64C97.9238 29.2 97.2838 28.56 96.8638 27.72C96.4438 26.86 96.2338 25.8 96.2338 24.54V18.15H94.6738C94.1938 18.15 93.8238 18.03 93.5638 17.79C93.3038 17.53 93.1738 17.18 93.1738 16.74C93.1738 16.28 93.3038 15.93 93.5638 15.69C93.8238 15.45 94.1938 15.33 94.6738 15.33H96.2338V12.6C96.2338 11.98 96.3938 11.51 96.7138 11.19C97.0538 10.87 97.5238 10.71 98.1238 10.71C98.7238 10.71 99.1838 10.87 99.5038 11.19C99.8238 11.51 99.9838 11.98 99.9838 12.6V15.33H103.164C103.644 15.33 104.014 15.45 104.274 15.69C104.534 15.93 104.664 16.28 104.664 16.74C104.664 17.18 104.534 17.53 104.274 17.79C104.014 18.03 103.644 18.15 103.164 18.15H99.9838V24.33C99.9838 25.29 100.194 26.01 100.614 26.49C101.034 26.97 101.714 27.21 102.654 27.21C102.994 27.21 103.294 27.18 103.554 27.12C103.814 27.06 104.044 27.02 104.244 27C104.484 26.98 104.684 27.06 104.844 27.24C105.004 27.4 105.084 27.74 105.084 28.26C105.084 28.66 105.014 29.02 104.874 29.34C104.754 29.64 104.524 29.85 104.184 29.97C103.924 30.05 103.584 30.12 103.164 30.18C102.744 30.26 102.374 30.3 102.054 30.3Z" fill="#1A191B"/>
</svg>
